<svg width="228" height="33" viewBox="0 0 228 33" fill="none" xmlns="http://www.w3.org/2000/svg">
<path d="M99.6809 16.6114C99.6789 16.5652 99.6615 16.5221 99.632 16.4822C99.6725 16.4812 99.7126 16.4801 99.7521 16.4801C99.7284 16.5232 99.7052 16.5673 99.6809 16.6114ZM90.0926 30.1056C90.7073 25.2364 94.0287 19.1264 99.5092 16.8446C99.5388 16.8331 99.5571 16.8163 99.5792 16.8005C98.2325 19.3554 97.524 22.0816 96.005 24.604C94.6819 26.8027 92.4449 28.5445 90.0926 30.1056ZM72.0498 28.3701C71.5759 29.1675 68.8717 32.6332 69.1098 30.5952C69.3052 28.9133 69.8603 27.2671 70.4823 25.6545C71.7665 22.3264 74.1694 19.5372 77.3591 17.1861C76.5448 18.1578 76.1903 19.43 75.8137 20.4995C74.8731 23.1752 73.5468 25.8499 72.0498 28.3701ZM64.9192 5.70471C62.9481 3.41559 66.5041 4.65104 68.1559 5.06495C70.8895 5.74886 73.4899 6.90654 75.8596 8.15248C79.4872 10.0613 82.9914 12.1225 85.2762 15.0325C77.3897 13.7792 69.5917 11.1329 64.9192 5.70471ZM88.692 6.38444C87.7972 5.78458 87.0034 5.10907 86.2186 4.42411C86.395 4.57959 83.7894 1.36283 83.9157 1.3975C89.0539 2.81153 93.6073 4.97249 97.5957 7.86043C100.528 9.98357 102.378 12.881 105.176 15.0818C101.193 13.6888 97.8643 11.7149 94.2953 9.7325C92.3743 8.66515 90.4824 7.58521 88.692 6.38444ZM46.0769 29.4501C44.5236 30.9156 44.1318 30.5668 44.138 28.7756C44.1449 26.8815 45.2495 25.0757 46.4467 23.483C48.4476 20.8252 51.6207 18.7755 54.4648 16.6902C54.4933 16.6902 54.5228 16.6902 54.5518 16.6913C51.9414 21.1077 50.1369 25.6209 46.0769 29.4501ZM30.5625 20.3829C28.8501 22.7834 27.3495 25.353 23.9 26.3321C24.6284 21.882 28.8168 18.4341 34.0235 16.8268C32.4976 17.6977 31.402 19.2042 30.5625 20.3829ZM2.31936 15.8645C8.06838 14.295 13.5542 14.4568 19.3271 15.5651C18.2435 15.5746 17.1617 15.584 16.0793 15.5924C15.6801 15.5966 15.5252 15.8824 15.6058 16.1114C11.0397 16.6545 6.2645 17.87 2.31936 15.8645ZM19.9312 5.11012C27.4996 5.1805 33.0844 10.3135 38.0033 14.5209C34.7019 13.3001 31.0549 12.6908 27.9336 11.052C24.8844 9.45306 22.5537 7.1156 19.9312 5.11012ZM39.3718 3.54903C48.424 4.94835 55.779 8.6851 60.3699 14.9033C52.2617 13.3316 43.0883 9.68734 39.3718 3.54903ZM111.634 15.7699C110.015 15.7258 108.395 15.6996 106.775 15.6628C106.84 15.5556 106.832 15.4222 106.697 15.3014C103.188 12.1613 100.445 8.66829 96.3485 5.94529C92.4554 3.35676 87.7429 1.66435 82.966 0.329109C82.6369 0.236664 82.226 0.533962 82.3646 0.798697C84.2981 4.4924 87.7635 6.98954 91.8007 9.3438C95.3387 11.4071 99.4292 14.4683 103.863 15.5987C98.1161 15.4811 92.3658 15.3907 86.6152 15.3392C85.3348 12.5185 81.8547 10.5288 78.8703 8.81748C74.1909 6.1344 69.0866 4.16253 63.3285 3.40089C62.9719 3.35467 62.6596 3.56268 62.7459 3.85368C63.813 7.40976 68.0463 10.0193 71.7102 11.9943C73.8702 13.1583 76.9026 14.5555 79.9743 15.2962C73.8212 15.2636 67.6671 15.2562 61.5124 15.2709C58.9642 7.92346 47.352 3.78014 38.6034 2.59408C38.2525 2.54575 37.788 2.77898 37.9522 3.10045C40.9198 8.93725 49.4589 13.7067 57.5498 15.2867C51.687 15.3098 45.8246 15.3424 39.9623 15.3886C39.9333 15.3476 39.8938 15.3098 39.8332 15.2783C39.5978 15.1659 39.3517 15.0714 39.1116 14.9684C33.828 9.98463 27.5444 3.68139 18.4353 4.1909C17.9169 4.21926 17.5852 4.70462 17.996 5.01663C20.7612 7.11351 23.2364 9.56757 26.3435 11.3703C29.6839 13.3085 33.6274 14.5072 37.6247 15.4086C32.5171 15.4495 27.4117 15.4937 22.3061 15.5388C15.5404 12.737 7.32151 12.798 0.377841 15.1732C-0.0582844 15.3224 -0.126231 15.8771 0.222977 16.1103C2.77552 17.8122 5.95423 18.0065 9.19928 17.9467C13.0975 17.8763 18.1636 17.7156 21.8584 16.6923C22.006 16.6514 22.0839 16.5494 22.085 16.4475C25.4955 16.478 28.9064 16.5053 32.3174 16.5347C26.9075 18.0916 23.1278 22.3085 22.8703 26.8553C22.856 27.099 23.1815 27.2692 23.4702 27.2103C26.3756 26.6189 28.2086 25.0851 29.7377 23.1447C30.6393 21.9986 31.3831 20.781 32.2832 19.6328C33.3493 18.2723 34.6461 17.5643 36.3042 16.7165C36.3863 16.6755 36.4333 16.6241 36.4622 16.5705C41.998 16.6156 47.5333 16.6556 53.0711 16.685C47.0508 20.2631 41.4186 25.3173 43.1151 31.5837C43.1836 31.839 43.6171 32.0533 43.9421 31.9493C46.9591 30.9902 48.7452 28.4069 50.3038 26.3216C52.5982 23.2519 54.0688 20.0288 55.6369 16.7102C55.6394 16.7049 55.6374 16.6997 55.6394 16.6934C62.569 16.7249 69.4995 16.7385 76.4274 16.7144C70.6093 19.9374 67.2325 26.8899 67.7202 32.2088C67.7413 32.4347 67.9731 32.6952 68.3071 32.6668C71.1782 32.4137 72.9837 28.907 73.8981 27.1767C75.631 23.8969 76.568 19.5498 79.2443 16.6955C85.694 16.664 92.1431 16.6041 98.5896 16.4959C92.1442 18.3007 88.4729 26.5411 88.642 31.2917C88.6594 31.7718 89.3499 31.9546 89.7919 31.6625C96.0355 27.5307 98.6149 22.5407 100.701 16.4591C104.346 16.3929 107.991 16.3162 111.634 16.2185C112.006 16.2091 112.006 15.7794 111.634 15.7699Z" fill="#8E9892" fill-opacity="0.7"/>
<path d="M128.247 16.4801C128.287 16.4801 128.328 16.4812 128.367 16.4822C128.339 16.5221 128.321 16.5652 128.32 16.6114C128.295 16.5673 128.271 16.5232 128.247 16.4801ZM131.995 24.6039C130.476 22.0816 129.766 19.3554 128.421 16.8005C128.444 16.8163 128.461 16.8331 128.491 16.8446C133.972 19.1264 137.292 25.2364 137.908 30.1056C135.555 28.5445 133.318 26.8027 131.995 24.6039ZM152.185 20.4995C151.81 19.43 151.455 18.1578 150.641 17.1861C153.831 19.5372 156.234 22.3264 157.518 25.6545C158.139 27.2671 158.695 28.9133 158.892 30.5952C159.128 32.6332 156.424 29.1675 155.951 28.3701C154.454 25.8499 153.126 23.1752 152.185 20.4995ZM142.723 15.0325C145.01 12.1225 148.513 10.0613 152.142 8.15248C154.511 6.90654 157.111 5.74885 159.844 5.06495C161.496 4.65104 165.051 3.41559 163.081 5.70471C158.409 11.1329 150.611 13.7792 142.723 15.0325ZM133.705 9.73249C130.136 11.7149 126.808 13.6888 122.824 15.0818C125.622 12.881 127.473 9.98357 130.404 7.86042C134.393 4.97249 138.946 2.81153 144.085 1.3975C144.211 1.36283 141.605 4.57959 141.781 4.42411C140.997 5.10906 140.204 5.78458 139.308 6.38444C137.517 7.5852 135.627 8.66515 133.705 9.73249ZM173.449 16.6913C173.477 16.6902 173.507 16.6902 173.535 16.6902C176.379 18.7755 179.552 20.8252 181.553 23.483C182.752 25.0757 183.855 26.8815 183.863 28.7756C183.868 30.5668 183.476 30.9156 181.924 29.4501C177.864 25.6209 176.06 21.1077 173.449 16.6913ZM193.976 16.8268C199.183 18.4341 203.371 21.882 204.1 26.3321C200.652 25.353 199.15 22.7834 197.437 20.3829C196.597 19.2042 195.504 17.6977 193.976 16.8268ZM212.395 16.1114C212.474 15.8824 212.319 15.5966 211.922 15.5924C210.839 15.584 209.756 15.5746 208.673 15.5651C214.446 14.4568 219.932 14.295 225.681 15.8645C221.735 17.87 216.961 16.6545 212.395 16.1114ZM200.067 11.052C196.946 12.6908 193.299 13.3001 189.997 14.5209C194.916 10.3135 200.501 5.1805 208.069 5.11012C205.447 7.1156 203.115 9.45306 200.067 11.052ZM167.631 14.9033C172.222 8.6851 179.576 4.94835 188.628 3.54903C184.911 9.68734 175.739 13.3316 167.631 14.9033ZM116.366 16.2185C120.01 16.3162 123.654 16.3929 127.299 16.4591C129.385 22.5407 131.964 27.5307 138.209 31.6625C138.65 31.9546 139.341 31.7718 139.358 31.2917C139.528 26.5411 135.856 18.3007 129.411 16.4959C135.859 16.6041 142.307 16.664 148.756 16.6955C151.433 19.5498 152.368 23.8969 154.101 27.1767C155.017 28.907 156.822 32.4137 159.693 32.6668C160.027 32.6952 160.259 32.4347 160.279 32.2088C160.767 26.8899 157.391 19.9374 151.573 16.7144C158.501 16.7385 165.432 16.7249 172.361 16.6934C172.362 16.6997 172.361 16.7049 172.362 16.7102C173.932 20.0288 175.402 23.2519 177.695 26.3216C179.255 28.4069 181.041 30.9902 184.058 31.9493C184.383 32.0533 184.816 31.839 184.885 31.5837C186.581 25.3173 180.949 20.2631 174.93 16.685C180.466 16.6555 186.003 16.6156 191.538 16.5705C191.566 16.624 191.613 16.6755 191.696 16.7165C193.354 17.5643 194.651 18.2723 195.718 19.6328C196.617 20.781 197.362 21.9986 198.264 23.1447C199.791 25.0851 201.624 26.6189 204.53 27.2103C204.818 27.2692 205.145 27.099 205.13 26.8553C204.872 22.3085 201.091 18.0916 195.683 16.5347C199.094 16.5053 202.506 16.478 205.916 16.4475C205.917 16.5494 205.995 16.6514 206.142 16.6923C209.836 17.7156 214.902 17.8763 218.801 17.9467C222.045 18.0065 225.225 17.8122 227.777 16.1103C228.125 15.8771 228.059 15.3224 227.622 15.1732C220.678 12.798 212.461 12.737 205.695 15.5388C200.588 15.4937 195.483 15.4495 190.376 15.4086C194.372 14.5072 198.315 13.3085 201.656 11.3703C204.764 9.56757 207.239 7.11351 210.004 5.01663C210.414 4.70462 210.084 4.21926 209.565 4.19089C200.456 3.68138 194.171 9.98463 188.888 14.9684C188.647 15.0714 188.403 15.1659 188.167 15.2783C188.106 15.3098 188.066 15.3476 188.037 15.3886C182.176 15.3424 176.313 15.3098 170.45 15.2867C178.542 13.7067 187.081 8.93725 190.048 3.10044C190.212 2.77898 189.747 2.54575 189.397 2.59408C180.647 3.78014 169.036 7.92346 166.487 15.2709C160.333 15.2562 154.179 15.2636 148.025 15.2962C151.098 14.5555 154.129 13.1583 156.289 11.9943C159.954 10.0193 164.187 7.40975 165.254 3.85367C165.341 3.56268 165.028 3.35466 164.672 3.40088C158.913 4.16253 153.808 6.1344 149.129 8.81748C146.145 10.5288 142.665 12.5185 141.384 15.3392C135.635 15.3907 129.884 15.4811 124.137 15.5987C128.57 14.4683 132.661 11.4071 136.2 9.3438C140.237 6.98954 143.701 4.4924 145.636 0.798695C145.775 0.533958 145.363 0.23666 145.034 0.329105C140.257 1.66434 135.546 3.35676 131.652 5.94529C127.555 8.66829 124.811 12.1613 121.303 15.3014C121.168 15.4222 121.16 15.5556 121.224 15.6628C119.605 15.6996 117.985 15.7258 116.366 15.7699C115.993 15.7794 115.993 16.2091 116.366 16.2185Z" fill="#8E9892" fill-opacity="0.7"/>
</svg>
