<svg width="32" height="32" viewBox="0 0 32 32" fill="none" xmlns="http://www.w3.org/2000/svg">
<circle cx="16" cy="16" r="15.5" stroke="currentColor"/>
<path d="M18.565 15.7525L14.965 13.3525C14.9199 13.3224 14.8675 13.3052 14.8133 13.3025C14.7592 13.2999 14.7054 13.312 14.6575 13.3375C14.6096 13.3624 14.5695 13.4002 14.5417 13.4465C14.5139 13.4928 14.4995 13.546 14.5 13.6V18.4C14.4995 18.454 14.5139 18.5072 14.5417 18.5535C14.5695 18.5998 14.6096 18.6376 14.6575 18.6625C14.7017 18.6853 14.7503 18.6981 14.8 18.7C14.8593 18.7011 14.9173 18.6826 14.965 18.6475L18.565 16.2475C18.6069 16.2211 18.6413 16.1846 18.6652 16.1413C18.6891 16.0981 18.7016 16.0494 18.7016 16C18.7016 15.9506 18.6891 15.9019 18.6652 15.8586C18.6413 15.8154 18.6069 15.7788 18.565 15.7525ZM15.1 17.8375V14.1625L17.86 16L15.1 17.8375ZM23.6875 11.71C23.6256 11.4813 23.5113 11.2702 23.3539 11.0932C23.1964 10.9162 22.9999 10.7781 22.78 10.69C20.245 9.71499 16.1725 9.72999 16 9.72999C15.8275 9.72999 11.755 9.71499 9.22002 10.69C9.00011 10.7781 8.80368 10.9162 8.64619 11.0932C8.48871 11.2702 8.37449 11.4813 8.31252 11.71C8.12502 12.4375 7.90002 13.7725 7.90002 16C7.90002 18.2275 8.12502 19.5625 8.31252 20.29C8.37449 20.5187 8.48871 20.7298 8.64619 20.9068C8.80368 21.0838 9.00011 21.2218 9.22002 21.31C11.755 22.285 15.8275 22.27 16 22.27H16.0525C16.57 22.27 20.3725 22.24 22.78 21.31C22.9999 21.2218 23.1964 21.0838 23.3539 20.9068C23.5113 20.7298 23.6256 20.5187 23.6875 20.29C23.875 19.5625 24.1 18.2275 24.1 16C24.1 13.7725 23.875 12.4375 23.6875 11.71ZM23.1025 20.14C23.0665 20.2765 22.9988 20.4026 22.905 20.5082C22.8112 20.6137 22.6939 20.6957 22.5625 20.7475C20.1325 21.685 16.045 21.67 16 21.67C15.955 21.67 11.8675 21.685 9.43752 20.7475C9.30617 20.6957 9.18885 20.6137 9.09504 20.5082C9.00123 20.4026 8.93357 20.2765 8.89752 20.14C8.71752 19.4425 8.50002 18.16 8.50002 16C8.50002 13.84 8.71752 12.5575 8.89752 11.86C8.93357 11.7235 9.00123 11.5973 9.09504 11.4918C9.18885 11.3863 9.30617 11.3043 9.43752 11.2525C11.8675 10.315 15.955 10.33 16 10.33C16.045 10.33 20.1325 10.315 22.5625 11.2525C22.6939 11.3043 22.8112 11.3863 22.905 11.4918C22.9988 11.5973 23.0665 11.7235 23.1025 11.86C23.2825 12.5575 23.5 13.84 23.5 16C23.5 18.16 23.2825 19.4425 23.1025 20.14Z" fill="currentColor"/>
</svg>
