<svg width="32" height="32" viewBox="0 0 32 32" fill="none" xmlns="http://www.w3.org/2000/svg">
<circle cx="16" cy="16" r="15.5" stroke="currentColor"/>
<g clip-path="url(#clip0_423_1474)">
<path d="M7.40002 13.1758C7.40002 12.6728 7.74319 12.4016 8.42952 12.3622L11.0743 12.377C11.2518 12.377 11.3701 12.4509 11.4293 12.5989C11.7014 13.3385 12.0061 13.9771 12.3434 14.5145C12.6806 15.052 13.1214 15.6709 13.6658 16.3711C13.7131 16.4598 13.79 16.5042 13.8965 16.5042C13.9793 16.5042 14.0444 16.4697 14.0918 16.4006L14.145 16.2379L14.1628 13.6787C14.1628 13.5012 14.1125 13.3829 14.0119 13.3237C13.9113 13.2645 13.7249 13.2202 13.4528 13.1906C13.2398 13.161 13.1333 13.0525 13.1333 12.8651C13.1333 12.8257 13.1392 12.7961 13.151 12.7764C13.3995 12.1354 14.1095 11.8148 15.281 11.8148L16.275 11.8C16.7247 11.8 17.0974 11.8937 17.3933 12.0811C17.6891 12.2685 17.837 12.5643 17.837 12.9687V16.3267C17.9198 16.376 17.9968 16.4006 18.0678 16.4006C18.2453 16.4006 18.3991 16.3119 18.5293 16.1344C19.8309 14.6156 20.535 13.5999 20.6415 13.087C20.6415 13.0772 20.6533 13.0525 20.677 13.0131C20.7598 12.8651 20.8959 12.7369 21.0852 12.6285C21.2746 12.52 21.4402 12.446 21.5822 12.4066C21.6296 12.3868 21.6828 12.377 21.742 12.377H24.4932L24.6707 12.3918C24.9074 12.3918 25.0908 12.4855 25.221 12.6728C25.2683 12.732 25.3009 12.7961 25.3186 12.8651C25.3364 12.9342 25.3482 13.0032 25.3541 13.0722C25.36 13.1413 25.363 13.1807 25.363 13.1906V13.2941C25.2802 13.6985 25.0701 14.1299 24.7329 14.5885C24.3956 15.0471 23.9667 15.5427 23.446 16.0752C22.9253 16.6077 22.5999 16.9578 22.4697 17.1255C22.3632 17.2438 22.31 17.3523 22.31 17.4509C22.31 17.5298 22.3573 17.6186 22.452 17.7172L25.0435 20.4391C25.1855 20.5969 25.2565 20.7695 25.2565 20.9569C25.2565 21.1837 25.15 21.3711 24.937 21.519C24.724 21.6669 24.4696 21.7507 24.1737 21.7705L23.872 21.7853H21.174C21.1622 21.7853 21.1385 21.7877 21.103 21.7927C21.0675 21.7976 21.0438 21.8 21.032 21.8C20.7717 21.8 20.5291 21.7064 20.3042 21.519C20.2214 21.4401 19.6652 20.8582 18.6358 19.7734C18.5766 19.7044 18.4938 19.6403 18.3873 19.5811C18.3399 19.7389 18.2778 19.9657 18.2009 20.2616C18.124 20.5574 18.0678 20.7695 18.0323 20.8977L17.979 21.1492C17.8607 21.4943 17.6122 21.7014 17.2335 21.7705L16.985 21.7853H15.2455C14.2633 21.7853 13.2841 21.4105 12.3079 20.661C11.3316 19.9115 10.453 18.9426 9.67202 17.7542C8.89102 16.5658 8.16327 15.1827 7.48877 13.6048C7.42961 13.4766 7.40002 13.3336 7.40002 13.1758ZM18.0678 17.0072C17.8193 17.0072 17.5944 16.9504 17.3933 16.837C17.1921 16.7236 17.0915 16.5683 17.0915 16.3711V12.9687C17.0915 12.7714 17.0323 12.6309 16.914 12.5471C16.7957 12.4633 16.5886 12.4214 16.2928 12.4214L15.281 12.4509C14.7722 12.4509 14.3876 12.5249 14.1273 12.6728C14.6479 12.8799 14.9083 13.2152 14.9083 13.6787V16.2823C14.8846 16.5288 14.7663 16.7335 14.5533 16.8962C14.3403 17.0589 14.1036 17.1403 13.8433 17.1403C13.4883 17.1403 13.2161 16.9973 13.0268 16.7113C12.1038 15.5476 11.4174 14.443 10.9678 13.3977L10.808 13.0131L8.44727 12.9983C8.29344 12.9983 8.20765 13.0057 8.1899 13.0205C8.17215 13.0353 8.16327 13.0772 8.16327 13.1462C8.16327 13.235 8.17511 13.3286 8.19877 13.4273L8.57152 14.2557C9.56552 16.3957 10.6453 18.0821 11.8109 19.3148C12.9765 20.5476 14.1213 21.164 15.2455 21.164H17.0205C17.0915 21.164 17.1448 21.1467 17.1803 21.1122C17.2158 21.0777 17.2453 21.0111 17.269 20.9125L17.3045 20.7645L17.6418 19.4628C17.7364 19.2853 17.8193 19.1669 17.8903 19.1077C18.0204 18.9993 18.1743 18.945 18.3518 18.945C18.6358 18.945 18.9257 19.088 19.2215 19.374L20.7302 20.9716C20.8249 21.0999 20.9255 21.164 21.032 21.164H23.9607C24.3157 21.164 24.4932 21.09 24.4932 20.9421C24.4932 20.8928 24.4755 20.8434 24.44 20.7941L21.8662 18.1166C21.6651 17.9095 21.5645 17.6876 21.5645 17.4509C21.5645 17.2143 21.6592 16.9874 21.8485 16.7705C22.0023 16.5732 22.3011 16.2453 22.7449 15.7867C23.1886 15.3282 23.5762 14.8992 23.9075 14.4998C24.2388 14.1003 24.4577 13.7379 24.5642 13.4125L24.6175 13.2202C24.6057 13.2004 24.5997 13.1684 24.5997 13.124C24.5997 13.0796 24.5938 13.0427 24.582 13.0131H21.7952C21.6177 13.0722 21.4757 13.161 21.3692 13.2793L21.2627 13.5604C20.9669 14.2409 20.1918 15.2912 18.9375 16.7113C18.689 16.9085 18.3991 17.0072 18.0678 17.0072Z" fill="currentColor"/>
</g>
<defs>
<clipPath id="clip0_423_1474">
<rect width="19.2" height="15.0857" fill="white" transform="translate(6.40002 8.80005)"/>
</clipPath>
</defs>
</svg>
