<svg width="32" height="32" viewBox="0 0 32 32" fill="none" xmlns="http://www.w3.org/2000/svg">
<circle cx="16" cy="16" r="15.5" stroke="currentColor"/>
<path d="M23.1561 7.81204C22.9836 7.66906 22.7756 7.57542 22.5542 7.54106C22.3328 7.50669 22.1062 7.53288 21.8985 7.61684L7.56489 13.4032C7.33327 13.4984 7.13607 13.6618 6.99948 13.8717C6.86289 14.0816 6.79336 14.328 6.80013 14.5784C6.8069 14.8287 6.88965 15.071 7.03739 15.2732C7.18512 15.4754 7.39086 15.6279 7.62729 15.7104L10.7201 16.784L12.3961 22.3248C12.3993 22.336 12.4097 22.3432 12.4145 22.3536C12.4318 22.3978 12.457 22.4385 12.4889 22.4736C12.5374 22.5278 12.6 22.5674 12.6697 22.588C12.6777 22.5912 12.6833 22.5984 12.6913 22.6H12.6961L12.6985 22.6008C12.7604 22.6142 12.8247 22.6108 12.8849 22.5912C12.8913 22.5896 12.8977 22.5896 12.9049 22.5872C12.9627 22.567 13.015 22.5336 13.0577 22.4896C13.0625 22.484 13.0705 22.4832 13.0753 22.4784L15.4857 19.8176L19.0033 22.5416C19.2169 22.7088 19.4801 22.7992 19.7513 22.7992C20.3385 22.7992 20.8449 22.388 20.9657 21.8144L23.5753 9.00004C23.6196 8.7825 23.6039 8.55703 23.5301 8.34766C23.4563 8.1383 23.327 7.9529 23.1561 7.81124V7.81204ZM13.2705 17.836L12.7049 20.5856L11.5249 16.6832L17.3769 13.6352L13.3793 17.6336C13.3239 17.689 13.2861 17.7594 13.2705 17.836V17.836ZM20.1817 21.6536C20.1667 21.7262 20.1333 21.7936 20.0846 21.8495C20.036 21.9054 19.9738 21.9479 19.9041 21.9728C19.836 21.999 19.7623 22.0071 19.6902 21.9961C19.6181 21.9852 19.5501 21.9556 19.4929 21.9104L15.6825 18.9592C15.6028 18.8978 15.5029 18.8685 15.4027 18.8774C15.3025 18.8863 15.2093 18.9327 15.1417 19.0072L13.4641 20.856L14.0289 18.1144L19.7801 12.3624C19.8474 12.2949 19.8884 12.2054 19.8956 12.1103C19.9029 12.0152 19.8758 11.9206 19.8194 11.8436C19.763 11.7667 19.681 11.7124 19.5881 11.6906C19.4952 11.6688 19.3976 11.681 19.3129 11.7248L11.0225 16.0432L7.88889 14.9536C7.80581 14.9262 7.73334 14.8735 7.68158 14.803C7.62982 14.7325 7.60133 14.6475 7.60009 14.56C7.59611 14.4718 7.61969 14.3845 7.66757 14.3102C7.71545 14.236 7.78525 14.1784 7.86729 14.1456L22.1985 8.35924C22.2719 8.32804 22.3526 8.31795 22.4315 8.3301C22.5103 8.34226 22.5843 8.37618 22.6449 8.42804C22.7052 8.47683 22.7507 8.54142 22.7764 8.6146C22.8022 8.68778 22.807 8.76666 22.7905 8.84244L20.1817 21.6544V21.6536Z" fill="currentColor"/>
</svg>
